<svg xmlns="http://www.w3.org/2000/svg" width="1200" height="675" viewBox="0 0 1200 675" role="img" aria-labelledby="t">
<title id="t">Stylised map of a power grid over mainland France (illustration, not real data)</title>
<rect width="1200" height="675" fill="#14202a"/>
<polygon points="585,60 830,150 905,300 870,500 640,615 400,585 330,380 250,235 420,170" fill="#a7bcc7" fill-opacity="0.06" stroke="#a7bcc7" stroke-opacity="0.55" stroke-width="3" stroke-linejoin="round"/>
<g stroke="#81a3a7" stroke-opacity="0.55" stroke-width="1.6">
<line x1="548.8" y1="228.9" x2="600.2" y2="252.1"/>
<line x1="548.8" y1="228.9" x2="498.1" y2="189.9"/>
<line x1="548.8" y1="228.9" x2="574.9" y2="152.9"/>
<line x1="692.8" y1="408.7" x2="636.6" y2="437.6"/>
<line x1="692.8" y1="408.7" x2="716.7" y2="342.2"/>
<line x1="692.8" y1="408.7" x2="767.4" y2="384.2"/>
<line x1="708" y1="514.8" x2="687.4" y2="576.3"/>
<line x1="708" y1="514.8" x2="636.8" y2="533.9"/>
<line x1="708" y1="514.8" x2="756.3" y2="458.6"/>
<line x1="502.2" y1="116.4" x2="498.1" y2="189.9"/>
<line x1="502.2" y1="116.4" x2="574.9" y2="152.9"/>
<line x1="502.2" y1="116.4" x2="424.9" y2="209"/>
<line x1="355.6" y1="242" x2="299.1" y2="248.5"/>
<line x1="355.6" y1="242" x2="326.8" y2="304.8"/>
<line x1="355.6" y1="242" x2="424.9" y2="209"/>
<line x1="514.7" y1="584.1" x2="585.5" y2="602.1"/>
<line x1="514.7" y1="584.1" x2="440.8" y2="582.8"/>
<line x1="514.7" y1="584.1" x2="464.8" y2="498.5"/>
<line x1="424.9" y1="209" x2="498.1" y2="189.9"/>
<line x1="424.9" y1="209" x2="465.4" y2="295.4"/>
<line x1="440.8" y1="582.8" x2="464.8" y2="498.5"/>
<line x1="440.8" y1="582.8" x2="585.5" y2="602.1"/>
<line x1="464.8" y1="498.5" x2="513.5" y2="430.1"/>
<line x1="464.8" y1="498.5" x2="430.9" y2="411.1"/>
<line x1="749.4" y1="279" x2="737.5" y2="218.3"/>
<line x1="749.4" y1="279" x2="716.7" y2="342.2"/>
<line x1="749.4" y1="279" x2="670.4" y2="261.8"/>
<line x1="670.4" y1="261.8" x2="649.5" y2="317.8"/>
<line x1="670.4" y1="261.8" x2="600.2" y2="252.1"/>
<line x1="670.4" y1="261.8" x2="737.5" y2="218.3"/>
<line x1="811.7" y1="209.1" x2="860.6" y2="262.1"/>
<line x1="811.7" y1="209.1" x2="737.5" y2="218.3"/>
<line x1="749.4" y1="279" x2="811.7" y2="209.1"/>
<line x1="574.9" y1="152.9" x2="625.7" y2="174.6"/>
<line x1="838.8" y1="495.3" x2="787.7" y2="519.4"/>
<line x1="838.8" y1="495.3" x2="816" y2="421.1"/>
<line x1="838.8" y1="495.3" x2="756.3" y2="458.6"/>
<line x1="649.5" y1="317.8" x2="716.7" y2="342.2"/>
<line x1="649.5" y1="317.8" x2="600.2" y2="252.1"/>
<line x1="581.3" y1="507.8" x2="636.8" y2="533.9"/>
<line x1="581.3" y1="507.8" x2="636.6" y2="437.6"/>
<line x1="581.3" y1="507.8" x2="585.5" y2="602.1"/>
<line x1="767.4" y1="384.2" x2="816" y2="421.1"/>
<line x1="767.4" y1="384.2" x2="716.7" y2="342.2"/>
<line x1="767.4" y1="384.2" x2="756.3" y2="458.6"/>
<line x1="569.5" y1="391.5" x2="513.5" y2="430.1"/>
<line x1="569.5" y1="391.5" x2="563" y2="317.6"/>
<line x1="569.5" y1="391.5" x2="636.6" y2="437.6"/>
<line x1="563" y1="317.6" x2="600.2" y2="252.1"/>
<line x1="563" y1="317.6" x2="484.1" y2="348"/>
<line x1="366" y1="399.3" x2="430.9" y2="411.1"/>
<line x1="366" y1="399.3" x2="404.3" y2="325.6"/>
<line x1="366" y1="399.3" x2="326.8" y2="304.8"/>
<line x1="860.6" y1="262.1" x2="893.3" y2="315"/>
<line x1="860.6" y1="262.1" x2="842.8" y2="344.4"/>
<line x1="816" y1="421.1" x2="865.8" y2="396.1"/>
<line x1="816" y1="421.1" x2="756.3" y2="458.6"/>
<line x1="404.3" y1="325.6" x2="465.4" y2="295.4"/>
<line x1="404.3" y1="325.6" x2="326.8" y2="304.8"/>
<line x1="404.3" y1="325.6" x2="484.1" y2="348"/>
<line x1="484.1" y1="348" x2="465.4" y2="295.4"/>
<line x1="484.1" y1="348" x2="430.9" y2="411.1"/>
<line x1="842.8" y1="344.4" x2="865.8" y2="396.1"/>
<line x1="842.8" y1="344.4" x2="893.3" y2="315"/>
<line x1="816" y1="421.1" x2="842.8" y2="344.4"/>
<line x1="513.5" y1="430.1" x2="430.9" y2="411.1"/>
<line x1="752.9" y1="127.7" x2="676.9" y2="139.9"/>
<line x1="752.9" y1="127.7" x2="737.5" y2="218.3"/>
<line x1="811.7" y1="209.1" x2="752.9" y2="127.7"/>
<line x1="299.1" y1="248.5" x2="326.8" y2="304.8"/>
<line x1="404.3" y1="325.6" x2="299.1" y2="248.5"/>
<line x1="642.7" y1="85" x2="676.9" y2="139.9"/>
<line x1="642.7" y1="85" x2="625.7" y2="174.6"/>
<line x1="574.9" y1="152.9" x2="642.7" y2="85"/>
<line x1="787.7" y1="519.4" x2="756.3" y2="458.6"/>
<line x1="708" y1="514.8" x2="787.7" y2="519.4"/>
<line x1="636.8" y1="533.9" x2="687.4" y2="576.3"/>
<line x1="636.8" y1="533.9" x2="585.5" y2="602.1"/>
<line x1="676.9" y1="139.9" x2="625.7" y2="174.6"/>
<line x1="625.7" y1="174.6" x2="600.2" y2="252.1"/>
<line x1="585.5" y1="602.1" x2="687.4" y2="576.3"/>
<line x1="893.3" y1="315" x2="865.8" y2="396.1"/>
</g>
<g stroke="#f2c14e" stroke-width="3.5" stroke-linecap="round">
<line x1="574.9" y1="152.9" x2="749.4" y2="279"/>
<line x1="749.4" y1="279" x2="816" y2="421.1"/>
<line x1="816" y1="421.1" x2="636.8" y2="533.9"/>
<line x1="636.8" y1="533.9" x2="464.8" y2="498.5"/>
<line x1="464.8" y1="498.5" x2="404.3" y2="325.6"/>
<line x1="404.3" y1="325.6" x2="574.9" y2="152.9"/>
<line x1="574.9" y1="152.9" x2="563" y2="317.6"/>
<line x1="816" y1="421.1" x2="563" y2="317.6"/>
<line x1="464.8" y1="498.5" x2="563" y2="317.6"/>
</g>
<g fill="#e8eef1">
<circle cx="548.8" cy="228.9" r="4"/>
<circle cx="692.8" cy="408.7" r="4"/>
<circle cx="708" cy="514.8" r="4"/>
<circle cx="502.2" cy="116.4" r="4"/>
<circle cx="355.6" cy="242" r="4"/>
<circle cx="514.7" cy="584.1" r="4"/>
<circle cx="424.9" cy="209" r="4"/>
<circle cx="440.8" cy="582.8" r="4"/>
<circle cx="670.4" cy="261.8" r="4"/>
<circle cx="811.7" cy="209.1" r="4"/>
<circle cx="838.8" cy="495.3" r="4"/>
<circle cx="649.5" cy="317.8" r="4"/>
<circle cx="581.3" cy="507.8" r="4"/>
<circle cx="767.4" cy="384.2" r="4"/>
<circle cx="569.5" cy="391.5" r="4"/>
<circle cx="366" cy="399.3" r="4"/>
<circle cx="860.6" cy="262.1" r="4"/>
<circle cx="484.1" cy="348" r="4"/>
<circle cx="636.6" cy="437.6" r="4"/>
<circle cx="842.8" cy="344.4" r="4"/>
<circle cx="513.5" cy="430.1" r="4"/>
<circle cx="752.9" cy="127.7" r="4"/>
<circle cx="465.4" cy="295.4" r="4"/>
<circle cx="299.1" cy="248.5" r="4"/>
<circle cx="642.7" cy="85" r="4"/>
<circle cx="787.7" cy="519.4" r="4"/>
<circle cx="716.7" cy="342.2" r="4"/>
<circle cx="585.5" cy="602.1" r="4"/>
<circle cx="498.1" cy="189.9" r="4"/>
<circle cx="676.9" cy="139.9" r="4"/>
<circle cx="756.3" cy="458.6" r="4"/>
<circle cx="625.7" cy="174.6" r="4"/>
<circle cx="687.4" cy="576.3" r="4"/>
<circle cx="893.3" cy="315" r="4"/>
<circle cx="737.5" cy="218.3" r="4"/>
<circle cx="430.9" cy="411.1" r="4"/>
<circle cx="600.2" cy="252.1" r="4"/>
<circle cx="865.8" cy="396.1" r="4"/>
<circle cx="326.8" cy="304.8" r="4"/>
</g>
<g fill="#14202a" stroke="#f2c14e" stroke-width="3">
<circle cx="574.9" cy="152.9" r="9"/>
<circle cx="749.4" cy="279" r="9"/>
<circle cx="816" cy="421.1" r="9"/>
<circle cx="636.8" cy="533.9" r="9"/>
<circle cx="464.8" cy="498.5" r="9"/>
<circle cx="404.3" cy="325.6" r="9"/>
<circle cx="563" cy="317.6" r="9"/>
</g>
</svg>
